<svg width="220" height="24" viewBox="0 0 220 24" xmlns="http://www.w3.org/2000/svg" xmlns:xlink="http://www.w3.org/1999/xlink"><title>Logo Copy</title><defs><path id="a" d="M0 22.868h219.909V.075H0z"/></defs><g transform="translate(0 .334)" fill="none" fill-rule="evenodd"><path fill="#F92822" d="M57.162 15.818L52.818.987h-4.703l6.756 21.339h4.466l6.72-21.34h-4.522zM16.238 1.652c.32-.42.81-.665 1.329-.665h4.01v21.338H17.01V8.255l-4.003 5.254a2.769 2.769 0 0 1-4.433 0L4.567 8.253v14.073H0V.987h4.007a1.68 1.68 0 0 1 1.334.668l5.449 7.15 5.448-7.153zM35.746.482c-6.008 0-10.878 5.008-10.878 11.186s4.87 11.187 10.878 11.187 10.878-5.009 10.878-11.187c0-6.178-4.87-11.186-10.878-11.186m0 4.688c3.484 0 6.32 2.915 6.32 6.498 0 3.584-2.836 6.5-6.32 6.5-3.485 0-6.32-2.916-6.32-6.5 0-3.583 2.835-6.498 6.32-6.498"/><path d="M126.277 1.67l-5.448 7.153-5.449-7.15a1.68 1.68 0 0 0-1.334-.668h-4.007v21.339h4.567V8.27l4.007 5.258a2.769 2.769 0 0 0 4.434 0l4.002-5.255v14.071h4.567V1.005h-4.01a1.67 1.67 0 0 0-1.329.666M145.785.495c-6.008 0-10.878 5.009-10.878 11.187 0 6.177 4.87 11.186 10.878 11.186s10.878-5.009 10.878-11.186c0-6.178-4.87-11.187-10.878-11.187m0 4.688c3.485 0 6.32 2.915 6.32 6.499 0 3.583-2.835 6.498-6.32 6.498-3.485 0-6.32-2.915-6.32-6.498 0-3.584 2.835-6.5 6.32-6.5m22.48 13.093h-3.821V13.55h3.488c2.264 0 3.186.68 3.186 2.347 0 1.623-.907 2.378-2.853 2.378zM164.444 5.07h3.247c1.951 0 2.822.695 2.822 2.254 0 1.538-.927 2.223-3.004 2.223h-3.065V5.069zm8.206 6.3c1.522-.93 2.293-2.467 2.293-4.576 0-1.901-.359-3.286-2.193-4.738-.904-.698-2.596-1.052-5.03-1.052h-7.766v21.339h8.493c2.484 0 4.13-.356 5.033-1.087.884-.715 1.456-1.436 1.747-2.204.29-.762.442-1.68.442-2.655 0-2.44-1.04-4.167-3.02-5.027z" fill="#001E4B"/><mask id="b" fill="#fff"><use xlink:href="#a"/></mask><path fill="#001E4B" mask="url(#b)" d="M179.31 22.342h4.49V1.002h-4.49zM193.307.996h-4.49v21.345h13.81v-4.067h-9.32zM219.909 1h-14.446v21.343h14.446v-4.067h-9.955V13.58h8.17V9.514h-6.54l-1.628 2.139-.002-6.586h9.955z"/><path fill="#F92822" mask="url(#b)" d="M83.716.987H69.27V22.33h14.446v-4.067H73.76v-4.695h8.17V9.5h-6.54l-1.628 2.14-.001-6.586h9.955z"/><path d="M87.215 17.705l.695 3.538c.07.316.237.579.504.79.241.19.51.29.802.308h5.401l3.552-4.696h-5.107l7.13-9.372v14.071h4.567V1.005h-4.01c-.519 0-1.008.246-1.328.665L87.215 17.705z" fill="#001E4B" mask="url(#b)"/></g></svg>